<svg xmlns="http://www.w3.org/2000/svg" xmlns:xlink="http://www.w3.org/1999/xlink" width="500" zoomAndPan="magnify" viewBox="0 0 375 374.999991" height="500" preserveAspectRatio="xMidYMid meet" version="1.2"><defs><clipPath id="3370cf3efc"><path d="M 37.5 64.3125 L 337.5 64.3125 L 337.5 311 L 37.5 311 Z M 37.5 64.3125 "/></clipPath></defs><g id="14f0ebad03"><g clip-rule="nonzero" clip-path="url(#3370cf3efc)"><path style=" stroke:none;fill-rule:nonzero;fill:#e7ecef;fill-opacity:1;" d="M 328.683594 64.316406 L 289.988281 64.316406 C 284.355469 64.316406 281.171875 67.5 281.171875 73.132812 L 281.171875 156.886719 L 210.765625 156.886719 L 210.765625 73.132812 C 210.765625 67.5 207.644531 64.316406 202.011719 64.316406 L 85.011719 64.316406 C 131.847656 64.316406 169.5 101.96875 169.5 148.804688 C 169.5 178.316406 151.929688 205.253906 125.90625 219.398438 L 189.152344 299.785156 C 193.746094 305.417969 191.296875 310.683594 183.886719 310.683594 L 201.949219 310.683594 C 207.582031 310.683594 210.765625 307.5 210.765625 301.867188 L 210.765625 211.070312 L 281.171875 211.070312 L 281.171875 301.867188 C 281.171875 307.5 284.355469 310.683594 289.988281 310.683594 L 328.683594 310.683594 C 334.316406 310.683594 337.5 307.5 337.5 301.867188 L 337.5 73.132812 C 337.5 67.5 334.316406 64.316406 328.683594 64.316406 Z M 127.929688 305.417969 L 67.988281 229.746094 L 46.316406 229.746094 L 46.316406 301.867188 C 46.316406 307.5 43.132812 310.683594 37.5 310.683594 L 138.886719 310.683594 C 134.296875 310.683594 130.746094 309.277344 127.929688 305.417969 Z M 113.171875 148.804688 C 113.171875 130.867188 100.5 117.152344 85.011719 117.152344 L 46.316406 117.152344 L 46.316406 180.519531 L 85.011719 180.519531 C 100.5 180.460938 113.171875 166.746094 113.171875 148.804688 Z M 113.171875 148.804688 "/></g></g></svg>