<svg xmlns="http://www.w3.org/2000/svg" xmlns:xlink="http://www.w3.org/1999/xlink" width="500" zoomAndPan="magnify" viewBox="0 0 375 374.999991" height="500" preserveAspectRatio="xMidYMid meet" version="1.2"><defs><clipPath id="317ad1551e"><path d="M 106.339844 73.734375 L 268.339844 73.734375 L 268.339844 207 L 106.339844 207 Z M 106.339844 73.734375 "/></clipPath></defs><g id="f5d71d0d35"><g clip-rule="nonzero" clip-path="url(#317ad1551e)"><path style=" stroke:none;fill-rule:nonzero;fill:#e7ecef;fill-opacity:1;" d="M 263.578125 73.734375 L 242.683594 73.734375 C 239.640625 73.734375 237.921875 75.453125 237.921875 78.496094 L 237.921875 123.722656 L 199.902344 123.722656 L 199.902344 78.496094 C 199.902344 75.453125 198.214844 73.734375 195.175781 73.734375 L 131.996094 73.734375 C 157.285156 73.734375 177.617188 94.066406 177.617188 119.359375 C 177.617188 135.292969 168.128906 149.839844 154.078125 157.476562 L 188.230469 200.886719 C 190.710938 203.929688 189.386719 206.773438 185.386719 206.773438 L 195.140625 206.773438 C 198.183594 206.773438 199.902344 205.054688 199.902344 202.011719 L 199.902344 152.980469 L 237.921875 152.980469 L 237.921875 202.011719 C 237.921875 205.054688 239.640625 206.773438 242.683594 206.773438 L 263.578125 206.773438 C 266.621094 206.773438 268.339844 205.054688 268.339844 202.011719 L 268.339844 78.496094 C 268.339844 75.453125 266.621094 73.734375 263.578125 73.734375 Z M 155.171875 203.929688 L 122.804688 163.066406 L 111.101562 163.066406 L 111.101562 202.011719 C 111.101562 205.054688 109.378906 206.773438 106.339844 206.773438 L 161.089844 206.773438 C 158.609375 206.773438 156.691406 206.011719 155.171875 203.929688 Z M 147.203125 119.359375 C 147.203125 109.671875 140.359375 102.265625 131.996094 102.265625 L 111.101562 102.265625 L 111.101562 136.484375 L 131.996094 136.484375 C 140.359375 136.449219 147.203125 129.046875 147.203125 119.359375 Z M 147.203125 119.359375 "/></g><g style="fill:#e7ecef;fill-opacity:1;"><g transform="translate(10.029542, 265.514333)"><path style="stroke:none" d="M 36.84375 -21.109375 L 36.84375 -12.9375 C 35.863281 -8.457031 33.726562 -5.066406 30.4375 -2.765625 C 27.144531 -0.460938 23.472656 0.6875 19.421875 0.6875 C 14.335938 0.6875 10.003906 -1.210938 6.421875 -5.015625 C 2.835938 -8.828125 1.046875 -13.429688 1.046875 -18.828125 C 1.046875 -24.316406 2.796875 -28.945312 6.296875 -32.71875 C 9.804688 -36.5 14.179688 -38.390625 19.421875 -38.390625 C 25.546875 -38.390625 30.390625 -36.242188 33.953125 -31.953125 L 28.34375 -25.78125 C 26.320312 -29.007812 23.515625 -30.625 19.921875 -30.625 C 17.273438 -30.625 15.015625 -29.472656 13.140625 -27.171875 C 11.265625 -24.867188 10.328125 -22.085938 10.328125 -18.828125 C 10.328125 -15.628906 11.265625 -12.894531 13.140625 -10.625 C 15.015625 -8.351562 17.273438 -7.21875 19.921875 -7.21875 C 22.117188 -7.21875 24.03125 -7.878906 25.65625 -9.203125 C 27.289062 -10.535156 28.109375 -12.296875 28.109375 -14.484375 L 19.421875 -14.484375 L 19.421875 -21.109375 Z M 36.84375 -21.109375 "/></g></g><g style="fill:#e7ecef;fill-opacity:1;"><g transform="translate(52.201328, 265.514333)"><path style="stroke:none" d="M 24.3125 -37.703125 L 24.3125 -30.171875 L 11.328125 -30.171875 L 11.328125 -22.671875 L 23.765625 -22.671875 L 23.765625 -15.125 L 11.328125 -15.125 L 11.328125 -7.546875 L 24.3125 -7.546875 L 24.3125 0 L 2.75 0 L 2.75 -37.703125 Z M 24.3125 -37.703125 "/></g></g><g style="fill:#e7ecef;fill-opacity:1;"><g transform="translate(82.996513, 265.514333)"><path style="stroke:none" d="M 11.328125 -23.40625 L 11.328125 0 L 2.75 0 L 2.75 -37.703125 L 11.328125 -37.703125 L 26.328125 -14.3125 L 26.421875 -14.3125 L 26.421875 -37.703125 L 35.015625 -37.703125 L 35.015625 0 L 26.421875 0 L 11.421875 -23.40625 Z M 11.328125 -23.40625 "/></g></g><g style="fill:#e7ecef;fill-opacity:1;"><g transform="translate(125.031228, 265.514333)"><path style="stroke:none" d="M 24.3125 -37.703125 L 24.3125 -30.171875 L 11.328125 -30.171875 L 11.328125 -22.671875 L 23.765625 -22.671875 L 23.765625 -15.125 L 11.328125 -15.125 L 11.328125 -7.546875 L 24.3125 -7.546875 L 24.3125 0 L 2.75 0 L 2.75 -37.703125 Z M 24.3125 -37.703125 "/></g></g><g style="fill:#e7ecef;fill-opacity:1;"><g transform="translate(155.826412, 265.514333)"><path style="stroke:none" d="M 2.75 -37.703125 L 16.21875 -37.703125 C 19.84375 -37.703125 22.796875 -36.734375 25.078125 -34.796875 C 27.367188 -32.867188 28.515625 -30.109375 28.515625 -26.515625 C 28.515625 -23.734375 27.820312 -21.40625 26.4375 -19.53125 C 25.050781 -17.664062 23.171875 -16.347656 20.796875 -15.578125 L 33.78125 0 L 22.859375 0 L 11.328125 -14.90625 L 11.328125 0 L 2.75 0 Z M 11.328125 -20.984375 L 12.34375 -20.984375 C 13.132812 -20.984375 13.800781 -20.992188 14.34375 -21.015625 C 14.894531 -21.046875 15.519531 -21.15625 16.21875 -21.34375 C 16.925781 -21.53125 17.492188 -21.789062 17.921875 -22.125 C 18.347656 -22.457031 18.710938 -22.941406 19.015625 -23.578125 C 19.316406 -24.222656 19.46875 -25 19.46875 -25.90625 C 19.46875 -26.820312 19.316406 -27.597656 19.015625 -28.234375 C 18.710938 -28.878906 18.347656 -29.367188 17.921875 -29.703125 C 17.492188 -30.035156 16.925781 -30.296875 16.21875 -30.484375 C 15.519531 -30.671875 14.894531 -30.773438 14.34375 -30.796875 C 13.800781 -30.828125 13.132812 -30.84375 12.34375 -30.84375 L 11.328125 -30.84375 Z M 11.328125 -20.984375 "/></g></g><g style="fill:#e7ecef;fill-opacity:1;"><g transform="translate(192.835319, 265.514333)"><path style="stroke:none" d="M 21.890625 -37.703125 L 37.109375 0 L 27.875 0 L 25.09375 -7.546875 L 10.734375 -7.546875 L 7.953125 0 L -1.28125 0 L 13.9375 -37.703125 Z M 22.171875 -15.078125 L 17.96875 -26.046875 L 17.875 -26.046875 L 13.671875 -15.078125 Z M 22.171875 -15.078125 "/></g></g><g style="fill:#e7ecef;fill-opacity:1;"><g transform="translate(232.951102, 265.514333)"><path style="stroke:none" d="M 0.359375 -30.171875 L 0.359375 -37.703125 L 26.875 -37.703125 L 26.875 -30.171875 L 17.921875 -30.171875 L 17.921875 0 L 9.328125 0 L 9.328125 -30.171875 Z M 0.359375 -30.171875 "/></g></g><g style="fill:#e7ecef;fill-opacity:1;"><g transform="translate(264.47732, 265.514333)"><path style="stroke:none" d="M 11.328125 -37.703125 L 11.328125 0 L 2.75 0 L 2.75 -37.703125 Z M 11.328125 -37.703125 "/></g></g><g style="fill:#e7ecef;fill-opacity:1;"><g transform="translate(282.84506, 265.514333)"><path style="stroke:none" d="M 1.046875 -18.875 C 1.046875 -24.332031 2.90625 -28.945312 6.625 -32.71875 C 10.34375 -36.5 14.820312 -38.390625 20.0625 -38.390625 C 25.332031 -38.390625 29.8125 -36.507812 33.5 -32.75 C 37.1875 -28.988281 39.03125 -24.363281 39.03125 -18.875 C 39.03125 -13.363281 37.21875 -8.722656 33.59375 -4.953125 C 29.96875 -1.191406 25.457031 0.6875 20.0625 0.6875 C 14.550781 0.6875 10.003906 -1.175781 6.421875 -4.90625 C 2.835938 -8.644531 1.046875 -13.300781 1.046875 -18.875 Z M 10.328125 -18.875 C 10.328125 -16.894531 10.628906 -15.085938 11.234375 -13.453125 C 11.847656 -11.828125 12.914062 -10.445312 14.4375 -9.3125 C 15.96875 -8.1875 17.84375 -7.625 20.0625 -7.625 C 23.257812 -7.625 25.671875 -8.722656 27.296875 -10.921875 C 28.929688 -13.117188 29.75 -15.769531 29.75 -18.875 C 29.75 -21.945312 28.914062 -24.585938 27.25 -26.796875 C 25.59375 -29.015625 23.195312 -30.125 20.0625 -30.125 C 16.957031 -30.125 14.554688 -29.015625 12.859375 -26.796875 C 11.171875 -24.585938 10.328125 -21.945312 10.328125 -18.875 Z M 10.328125 -18.875 "/></g></g><g style="fill:#e7ecef;fill-opacity:1;"><g transform="translate(327.209932, 265.514333)"><path style="stroke:none" d="M 11.328125 -23.40625 L 11.328125 0 L 2.75 0 L 2.75 -37.703125 L 11.328125 -37.703125 L 26.328125 -14.3125 L 26.421875 -14.3125 L 26.421875 -37.703125 L 35.015625 -37.703125 L 35.015625 0 L 26.421875 0 L 11.421875 -23.40625 Z M 11.328125 -23.40625 "/></g></g><g style="fill:#e7ecef;fill-opacity:1;"><g transform="translate(92.875727, 295.190746)"><path style="stroke:none" d="M 13.734375 -7.875 L 13.734375 -4.828125 C 13.367188 -3.148438 12.570312 -1.882812 11.34375 -1.03125 C 10.125 -0.175781 8.757812 0.25 7.25 0.25 C 5.34375 0.25 3.722656 -0.457031 2.390625 -1.875 C 1.054688 -3.289062 0.390625 -5.003906 0.390625 -7.015625 C 0.390625 -9.066406 1.039062 -10.796875 2.34375 -12.203125 C 3.65625 -13.609375 5.289062 -14.3125 7.25 -14.3125 C 9.53125 -14.3125 11.335938 -13.515625 12.671875 -11.921875 L 10.5625 -9.609375 C 9.8125 -10.816406 8.769531 -11.421875 7.4375 -11.421875 C 6.445312 -11.421875 5.601562 -10.988281 4.90625 -10.125 C 4.207031 -9.269531 3.859375 -8.234375 3.859375 -7.015625 C 3.859375 -5.828125 4.207031 -4.804688 4.90625 -3.953125 C 5.601562 -3.109375 6.445312 -2.6875 7.4375 -2.6875 C 8.25 -2.6875 8.957031 -2.929688 9.5625 -3.421875 C 10.175781 -3.921875 10.484375 -4.582031 10.484375 -5.40625 L 7.25 -5.40625 L 7.25 -7.875 Z M 13.734375 -7.875 "/></g></g><g style="fill:#e7ecef;fill-opacity:1;"><g transform="translate(120.648385, 295.190746)"><path style="stroke:none" d="M 1.015625 -14.0625 L 6.046875 -14.0625 C 7.398438 -14.0625 8.503906 -13.703125 9.359375 -12.984375 C 10.210938 -12.265625 10.640625 -11.234375 10.640625 -9.890625 C 10.640625 -8.859375 10.378906 -7.988281 9.859375 -7.28125 C 9.347656 -6.582031 8.644531 -6.09375 7.75 -5.8125 L 12.59375 0 L 8.53125 0 L 4.234375 -5.5625 L 4.234375 0 L 1.015625 0 Z M 4.234375 -7.828125 L 4.609375 -7.828125 C 4.898438 -7.828125 5.144531 -7.832031 5.34375 -7.84375 C 5.550781 -7.851562 5.785156 -7.890625 6.046875 -7.953125 C 6.304688 -8.023438 6.515625 -8.125 6.671875 -8.25 C 6.835938 -8.375 6.976562 -8.554688 7.09375 -8.796875 C 7.207031 -9.035156 7.265625 -9.320312 7.265625 -9.65625 C 7.265625 -10 7.207031 -10.289062 7.09375 -10.53125 C 6.976562 -10.769531 6.835938 -10.953125 6.671875 -11.078125 C 6.515625 -11.203125 6.304688 -11.296875 6.046875 -11.359375 C 5.785156 -11.429688 5.550781 -11.472656 5.34375 -11.484375 C 5.144531 -11.492188 4.898438 -11.5 4.609375 -11.5 L 4.234375 -11.5 Z M 4.234375 -7.828125 "/></g></g><g style="fill:#e7ecef;fill-opacity:1;"><g transform="translate(146.495407, 295.190746)"><path style="stroke:none" d="M 11.828125 -14.0625 L 11.828125 -5 C 11.828125 -3.269531 11.359375 -1.960938 10.421875 -1.078125 C 9.492188 -0.191406 8.128906 0.25 6.328125 0.25 C 4.535156 0.25 3.175781 -0.191406 2.25 -1.078125 C 1.320312 -1.960938 0.859375 -3.269531 0.859375 -5 L 0.859375 -14.0625 L 4.0625 -14.0625 L 4.0625 -5.9375 C 4.0625 -4.800781 4.238281 -4.007812 4.59375 -3.5625 C 4.945312 -3.113281 5.523438 -2.890625 6.328125 -2.890625 C 7.140625 -2.890625 7.722656 -3.113281 8.078125 -3.5625 C 8.441406 -4.007812 8.625 -4.800781 8.625 -5.9375 L 8.625 -14.0625 Z M 11.828125 -14.0625 "/></g></g><g style="fill:#e7ecef;fill-opacity:1;"><g transform="translate(172.819576, 295.190746)"><path style="stroke:none" d="M 1.015625 -14.0625 L 6.15625 -14.0625 C 7.582031 -14.0625 8.738281 -13.691406 9.625 -12.953125 C 10.519531 -12.210938 10.96875 -11.140625 10.96875 -9.734375 C 10.96875 -8.328125 10.515625 -7.222656 9.609375 -6.421875 C 8.710938 -5.617188 7.5625 -5.21875 6.15625 -5.21875 L 4.234375 -5.21875 L 4.234375 0 L 1.015625 0 Z M 4.234375 -7.765625 L 5.125 -7.765625 C 5.84375 -7.765625 6.429688 -7.910156 6.890625 -8.203125 C 7.347656 -8.492188 7.578125 -8.96875 7.578125 -9.625 C 7.578125 -10.300781 7.347656 -10.78125 6.890625 -11.0625 C 6.429688 -11.351562 5.84375 -11.5 5.125 -11.5 L 4.234375 -11.5 Z M 4.234375 -7.765625 "/></g></g><g style="fill:#e7ecef;fill-opacity:1;"><g transform="translate(197.814531, 295.190746)"><path style="stroke:none" d="M 0.390625 -7.046875 C 0.390625 -9.078125 1.082031 -10.796875 2.46875 -12.203125 C 3.851562 -13.609375 5.523438 -14.3125 7.484375 -14.3125 C 9.453125 -14.3125 11.125 -13.609375 12.5 -12.203125 C 13.875 -10.804688 14.5625 -9.085938 14.5625 -7.046875 C 14.5625 -4.984375 13.882812 -3.25 12.53125 -1.84375 C 11.175781 -0.445312 9.492188 0.25 7.484375 0.25 C 5.421875 0.25 3.722656 -0.441406 2.390625 -1.828125 C 1.054688 -3.222656 0.390625 -4.960938 0.390625 -7.046875 Z M 3.859375 -7.046875 C 3.859375 -6.304688 3.96875 -5.628906 4.1875 -5.015625 C 4.414062 -4.410156 4.8125 -3.894531 5.375 -3.46875 C 5.945312 -3.050781 6.648438 -2.84375 7.484375 -2.84375 C 8.679688 -2.84375 9.582031 -3.25 10.1875 -4.0625 C 10.789062 -4.882812 11.09375 -5.878906 11.09375 -7.046875 C 11.09375 -8.191406 10.78125 -9.175781 10.15625 -10 C 9.539062 -10.820312 8.648438 -11.234375 7.484375 -11.234375 C 6.328125 -11.234375 5.429688 -10.820312 4.796875 -10 C 4.171875 -9.175781 3.859375 -8.191406 3.859375 -7.046875 Z M 3.859375 -7.046875 "/></g></g><g style="fill:#e7ecef;fill-opacity:1;"><g transform="translate(226.405176, 295.190746)"><path style="stroke:none" d=""/></g></g><g style="fill:#e7ecef;fill-opacity:1;"><g transform="translate(244.702961, 295.190746)"><path style="stroke:none" d="M 0.484375 -7.015625 C 0.484375 -9.335938 1.03125 -11.132812 2.125 -12.40625 C 3.226562 -13.675781 4.585938 -14.3125 6.203125 -14.3125 C 7.816406 -14.3125 9.171875 -13.675781 10.265625 -12.40625 C 11.367188 -11.132812 11.921875 -9.335938 11.921875 -7.015625 C 11.921875 -5.753906 11.765625 -4.644531 11.453125 -3.6875 C 11.148438 -2.738281 10.726562 -1.984375 10.1875 -1.421875 C 9.644531 -0.859375 9.039062 -0.4375 8.375 -0.15625 C 7.707031 0.113281 6.984375 0.25 6.203125 0.25 C 5.421875 0.25 4.695312 0.113281 4.03125 -0.15625 C 3.363281 -0.4375 2.753906 -0.859375 2.203125 -1.421875 C 1.660156 -1.984375 1.238281 -2.738281 0.9375 -3.6875 C 0.632812 -4.644531 0.484375 -5.753906 0.484375 -7.015625 Z M 3.71875 -7.015625 C 3.71875 -5.535156 3.929688 -4.421875 4.359375 -3.671875 C 4.796875 -2.929688 5.410156 -2.5625 6.203125 -2.5625 C 6.984375 -2.5625 7.585938 -2.929688 8.015625 -3.671875 C 8.453125 -4.421875 8.671875 -5.535156 8.671875 -7.015625 C 8.671875 -8.441406 8.453125 -9.546875 8.015625 -10.328125 C 7.578125 -11.109375 6.972656 -11.5 6.203125 -11.5 C 5.429688 -11.5 4.820312 -11.101562 4.375 -10.3125 C 3.9375 -9.53125 3.71875 -8.429688 3.71875 -7.015625 Z M 3.71875 -7.015625 "/></g></g><g style="fill:#e7ecef;fill-opacity:1;"><g transform="translate(270.737436, 295.190746)"><path style="stroke:none" d="M 9.5 -5.78125 L 11.125 -5.78125 L 11.125 -2.96875 L 9.5 -2.96875 L 9.5 0 L 6.5 0 L 6.5 -2.96875 L -0.421875 -2.96875 L -0.421875 -3.921875 L 6.328125 -14.0625 L 9.5 -14.0625 Z M 6.5 -9.78125 L 6.453125 -9.78125 L 3.953125 -5.78125 L 6.5 -5.78125 Z M 6.5 -9.78125 "/></g></g></g></svg>